<mxfile host="app.diagrams.net" modified="2024-04-26T08:58:37.730Z" agent="Mozilla/5.0 (Windows NT 10.0; Win64; x64) AppleWebKit/537.36 (KHTML, like Gecko) Chrome/123.0.0.0 Safari/537.36 OPR/109.0.0.0" version="24.3.0" etag="FG-2oX7iFGdz5ik2uMeT" type="github">
  <diagram name="Page-1" id="a2GHHI9agvKtVbdlsHTi">
    <mxGraphModel>
      <root>
        <mxCell id="0" />
        <mxCell id="1" parent="0" />
      </root>
    </mxGraphModel>
  </diagram>
</mxfile>
